<svg width="277" height="49" viewBox="0 0 277 49" fill="none" xmlns="http://www.w3.org/2000/svg">
<path d="M156.097 41H160.129V38.2538C163.422 37.9923 166.446 36.75 168.798 34.7885L166.379 31.65L166.177 31.8462C164.497 33.2192 162.414 34.1346 160.062 34.3961V13.6038C162.414 13.8 164.497 14.7154 166.177 16.0884L169 13.3423C168.933 13.2769 168.866 13.2115 168.798 13.1461C166.446 11.1846 163.422 9.94229 160.129 9.68075V7L156.097 7.06537V9.94231C149.242 11.25 144 17.0692 144 24C144 30.9308 149.242 36.8154 156.097 38.1231V41ZM148.032 24.1307C148.032 19.2923 151.46 15.2385 156.097 14.0615V34.2C151.46 32.9577 148.032 28.9692 148.032 24.1307Z" fill="white"/>
<path d="M193.907 35.52V39H173.587V11H193.347V14.48H177.587V23.08H191.627V26.48H177.587V35.52H193.907ZM224.464 11V39H221.184L204.384 18.12V39H200.384V11H203.664L220.464 31.88V11H224.464ZM238.405 14.48H228.805V11H251.965V14.48H242.365V39H238.405V14.48ZM264.13 39.32C262.023 39.32 259.983 39 258.01 38.36C256.063 37.6933 254.53 36.84 253.41 35.8L254.89 32.68C255.956 33.64 257.316 34.4267 258.97 35.04C260.65 35.6267 262.37 35.92 264.13 35.92C266.45 35.92 268.183 35.5333 269.33 34.76C270.476 33.96 271.05 32.9067 271.05 31.6C271.05 30.64 270.73 29.8667 270.09 29.28C269.476 28.6667 268.703 28.2 267.77 27.88C266.863 27.56 265.57 27.2 263.89 26.8C261.783 26.2933 260.076 25.7867 258.77 25.28C257.49 24.7733 256.383 24 255.45 22.96C254.543 21.8933 254.09 20.4667 254.09 18.68C254.09 17.1867 254.476 15.84 255.25 14.64C256.05 13.44 257.25 12.48 258.85 11.76C260.45 11.04 262.436 10.68 264.81 10.68C266.463 10.68 268.09 10.8933 269.69 11.32C271.29 11.7467 272.663 12.36 273.81 13.16L272.49 16.36C271.316 15.6133 270.063 15.0533 268.73 14.68C267.396 14.28 266.09 14.08 264.81 14.08C262.543 14.08 260.836 14.4933 259.69 15.32C258.57 16.1467 258.01 17.2133 258.01 18.52C258.01 19.48 258.33 20.2667 258.97 20.88C259.61 21.4667 260.396 21.9333 261.33 22.28C262.29 22.6 263.583 22.9467 265.21 23.32C267.316 23.8267 269.01 24.3333 270.29 24.84C271.57 25.3467 272.663 26.12 273.57 27.16C274.503 28.2 274.97 29.6 274.97 31.36C274.97 32.8267 274.57 34.1733 273.77 35.4C272.97 36.6 271.756 37.56 270.13 38.28C268.503 38.9733 266.503 39.32 264.13 39.32Z" fill="white"/>
<path d="M30.6366 39L30.5966 18.6L20.4766 35.6H18.6366L8.51656 18.72V39H4.67656V11H7.95656L19.6366 30.68L31.1566 11H34.4366L34.4766 39H30.6366ZM60.7197 32H45.8397L42.7597 39H38.6397L51.3197 11H55.2797L67.9997 39H63.7997L60.7197 32ZM59.3197 28.8L53.2797 15.08L47.2397 28.8H59.3197ZM81.2966 26.56L76.1766 31.76V39H72.1766V11H76.1766V26.64L91.3766 11H95.9366L83.9766 23.6L96.6966 39H92.0166L81.2966 26.56ZM121.247 35.52V39H100.927V11H120.687V14.48H104.927V23.08H118.967V26.48H104.927V35.52H121.247Z" fill="white"/>
</svg>
